<svg xmlns="http://www.w3.org/2000/svg" viewBox="0 0 32 32">
  <rect width="32" height="32" fill="#09090b"/>
  <circle cx="16" cy="4.6" r="2.15" fill="#c47a6a"/>
  <circle cx="21.3" cy="6.05" r="2.15" fill="#c47a6a"/>
  <circle cx="25.4" cy="9.5" r="2.15" fill="#c47a6a"/>
  <circle cx="27.4" cy="14.15" r="2.15" fill="#c47a6a"/>
  <circle cx="27.05" cy="19.2" r="2.15" fill="#c47a6a"/>
  <circle cx="24.35" cy="23.55" r="2.15" fill="#c47a6a"/>
  <circle cx="19.85" cy="26.35" r="2.15" fill="#c47a6a"/>
  <circle cx="14.65" cy="26.7" r="2.15" fill="#c47a6a"/>
  <circle cx="9.85" cy="24.85" r="2.15" fill="#c47a6a"/>
  <circle cx="6.2" cy="21.15" r="2.15" fill="#c47a6a"/>
  <circle cx="4.6" cy="16.35" r="2.15" fill="#c47a6a"/>
  <circle cx="5.15" cy="11.25" r="2.15" fill="#c47a6a"/>
  <circle cx="7.9" cy="7" r="2.15" fill="#c47a6a"/>
  <circle cx="12.15" cy="4.85" r="2.15" fill="#c47a6a"/>
  <circle cx="16" cy="16" r="11.2" fill="#c47a6a"/>
  <circle cx="16" cy="16" r="8.15" fill="none" stroke="#8faa8c" stroke-width="1.15"/>
  <circle cx="16" cy="16" r="6.55" fill="none" stroke="#f4f1ea" stroke-width="0.45"/>
  <path d="M12.2 11.2v9.6M19.8 11.2v9.6M12.2 16h7.6" fill="none" stroke="#f4f1ea" stroke-width="1.7" stroke-linecap="square"/>
</svg>
